<svg xmlns="http://www.w3.org/2000/svg" viewBox="0 0 120 120">
  <!-- Cthulhito : rejeton assoupi d'un dieu ancien -->
  <defs>
    <linearGradient id="g10" x1="0%" y1="0%" x2="0%" y2="100%">
      <stop offset="0%" stop-color="#2e8b6e"/>
      <stop offset="100%" stop-color="#14463a"/>
    </linearGradient>
  </defs>
  <!-- Ailes membraneuses -->
  <g fill="#1d5c4a" stroke="#0c2e25" stroke-width="2.5">
    <path d="M38 50 C18 30 5 32 4 48 C12 44 20 48 24 56 C16 56 10 62 12 70 C20 64 30 64 38 70 Z"/>
    <path d="M82 50 C102 30 115 32 116 48 C108 44 100 48 96 56 C104 56 110 62 108 70 C100 64 90 64 82 70 Z"/>
  </g>
  <!-- Corps -->
  <ellipse cx="60" cy="78" rx="22" ry="24" fill="url(#g10)" stroke="#0c2e25" stroke-width="3"/>
  <!-- Ventre -->
  <ellipse cx="60" cy="82" rx="13" ry="16" fill="#7ab89a" opacity="0.7"/>
  <!-- Bras croisés (assoupi) -->
  <path d="M42 76 Q50 88 60 86 M78 76 Q70 88 60 86" stroke="#1d5c4a" stroke-width="7" fill="none" stroke-linecap="round"/>
  <!-- Petites pattes -->
  <path d="M50 100 L48 110 M70 100 L72 110" stroke="#14463a" stroke-width="6" stroke-linecap="round"/>
  <!-- Tête de poulpe -->
  <path d="M60 18 C82 18 90 36 88 52 C86 62 74 66 60 66 C46 66 34 62 32 52 C30 36 38 18 60 18 Z" fill="url(#g10)" stroke="#0c2e25" stroke-width="3"/>
  <!-- Tentacules faciaux -->
  <g stroke="#0c2e25" stroke-width="2" fill="#1d5c4a">
    <path d="M44 60 C42 72 36 80 30 82 C36 84 44 76 47 66 Z"/>
    <path d="M52 63 C51 74 47 84 42 88 C49 87 55 76 57 66 Z"/>
    <path d="M60 64 C60 76 58 86 55 92 C62 88 64 76 64 66 Z"/>
    <path d="M68 63 C69 74 73 84 78 88 C71 87 65 76 63 66 Z"/>
    <path d="M76 60 C78 72 84 80 90 82 C84 84 76 76 73 66 Z"/>
  </g>
  <!-- Yeux mi-clos (assoupi) -->
  <path d="M42 42 Q48 38 54 42 Q48 46 42 42 Z" fill="#e8c547" stroke="#0c2e25" stroke-width="1.5"/>
  <path d="M66 42 Q72 38 78 42 Q72 46 66 42 Z" fill="#e8c547" stroke="#0c2e25" stroke-width="1.5"/>
  <ellipse cx="48" cy="42" rx="2" ry="1.5" fill="#0a0a12"/>
  <ellipse cx="72" cy="42" rx="2" ry="1.5" fill="#0a0a12"/>
  <!-- Zzz (il dort) -->
  <text x="92" y="20" fill="#7ab89a" font-size="13" font-weight="bold" opacity="0.9">z</text>
  <text x="100" y="12" fill="#7ab89a" font-size="9" opacity="0.7">z</text>
</svg>
