<svg xmlns="http://www.w3.org/2000/svg" viewBox="0 0 120 120">
  <!-- Shoggolin : protoplasme noir constellé de bouches -->
  <defs>
    <radialGradient id="g3" cx="45%" cy="35%">
      <stop offset="0%" stop-color="#3d3d5c"/>
      <stop offset="100%" stop-color="#14141f"/>
    </radialGradient>
  </defs>
  <path d="M60 20 C85 18 105 40 102 65 C108 75 100 88 92 90 C95 102 78 112 60 108 C42 112 25 102 28 90 C20 88 12 75 18 65 C15 40 35 18 60 20 Z" fill="url(#g3)" stroke="#0a0a12" stroke-width="3"/>
  <!-- Bulles -->
  <circle cx="38" cy="35" r="5" fill="#3d3d5c" stroke="#0a0a12" stroke-width="2"/>
  <circle cx="85" cy="30" r="4" fill="#3d3d5c" stroke="#0a0a12" stroke-width="2"/>
  <!-- Bouches chantantes -->
  <g>
    <ellipse cx="45" cy="55" rx="9" ry="6" fill="#8a1538"/>
    <path d="M37 55 Q45 59 53 55" stroke="#fffbe6" stroke-width="2" fill="none"/>
    <ellipse cx="75" cy="48" rx="7" ry="5" fill="#8a1538"/>
    <path d="M69 48 Q75 51 81 48" stroke="#fffbe6" stroke-width="1.8" fill="none"/>
    <ellipse cx="60" cy="80" rx="11" ry="7" fill="#8a1538"/>
    <path d="M50 80 Q60 85 70 80" stroke="#fffbe6" stroke-width="2.2" fill="none"/>
    <ellipse cx="35" cy="80" rx="5" ry="4" fill="#8a1538"/>
    <ellipse cx="85" cy="75" rx="6" ry="4.5" fill="#8a1538"/>
    <path d="M80 75 Q85 78 90 75" stroke="#fffbe6" stroke-width="1.5" fill="none"/>
  </g>
  <!-- Petits yeux verts -->
  <circle cx="55" cy="38" r="3" fill="#7fff6e"/>
  <circle cx="68" cy="62" r="2.5" fill="#7fff6e"/>
  <circle cx="42" cy="68" r="2" fill="#7fff6e"/>
  <!-- Notes de musique -->
  <text x="95" y="22" fill="#7fff6e" font-size="12" opacity="0.8">♪</text>
  <text x="12" y="50" fill="#7fff6e" font-size="10" opacity="0.6">♫</text>
</svg>
